<mxfile host="65bd71144e">
    <diagram id="_ZRRMgh1mHAzexx4Y8N-" name="Page-1">
        <mxGraphModel dx="4343" dy="3007" grid="1" gridSize="10" guides="1" tooltips="1" connect="1" arrows="1" fold="1" page="1" pageScale="1" pageWidth="850" pageHeight="1100" math="0" shadow="0">
            <root>
                <mxCell id="0"/>
                <mxCell id="1" parent="0"/>
                <mxCell id="2" value="" style="whiteSpace=wrap;html=1;aspect=fixed;" parent="1" vertex="1">
                    <mxGeometry x="190" y="250" width="430" height="430" as="geometry"/>
                </mxCell>
                <mxCell id="3" value="Application Name&lt;br&gt;" style="rounded=0;whiteSpace=wrap;html=1;" parent="1" vertex="1">
                    <mxGeometry x="345" y="270" width="120" height="30" as="geometry"/>
                </mxCell>
                <mxCell id="4" value="Log in" style="whiteSpace=wrap;html=1;aspect=fixed;" parent="1" vertex="1">
                    <mxGeometry x="345" y="402.5" width="125" height="125" as="geometry"/>
                </mxCell>
                <mxCell id="5" value="sign in" style="rounded=0;whiteSpace=wrap;html=1;" parent="1" vertex="1">
                    <mxGeometry x="350" y="500" width="45" height="20" as="geometry"/>
                </mxCell>
                <mxCell id="18" style="edgeStyle=none;html=1;exitX=0.5;exitY=1;exitDx=0;exitDy=0;" parent="1" source="6" target="8" edge="1">
                    <mxGeometry relative="1" as="geometry"/>
                </mxCell>
                <mxCell id="6" value="register" style="rounded=0;whiteSpace=wrap;html=1;" parent="1" vertex="1">
                    <mxGeometry x="415" y="500" width="50" height="20" as="geometry"/>
                </mxCell>
                <mxCell id="8" value="" style="whiteSpace=wrap;html=1;aspect=fixed;" parent="1" vertex="1">
                    <mxGeometry x="255" y="740" width="300" height="300" as="geometry"/>
                </mxCell>
                <mxCell id="9" value="Application Name" style="rounded=0;whiteSpace=wrap;html=1;" parent="1" vertex="1">
                    <mxGeometry x="345" y="760" width="120" height="30" as="geometry"/>
                </mxCell>
                <mxCell id="10" value="" style="whiteSpace=wrap;html=1;aspect=fixed;" parent="1" vertex="1">
                    <mxGeometry x="315" y="810" width="180" height="180" as="geometry"/>
                </mxCell>
                <mxCell id="11" value="registration Form" style="rounded=0;whiteSpace=wrap;html=1;" parent="1" vertex="1">
                    <mxGeometry x="345" y="820" width="120" height="20" as="geometry"/>
                </mxCell>
                <mxCell id="12" value="name" style="rounded=0;whiteSpace=wrap;html=1;" parent="1" vertex="1">
                    <mxGeometry x="345" y="860" width="120" height="20" as="geometry"/>
                </mxCell>
                <mxCell id="13" value="email" style="rounded=0;whiteSpace=wrap;html=1;" parent="1" vertex="1">
                    <mxGeometry x="345" y="890" width="120" height="20" as="geometry"/>
                </mxCell>
                <mxCell id="14" value="are you a provider?" style="rounded=0;whiteSpace=wrap;html=1;" parent="1" vertex="1">
                    <mxGeometry x="345" y="920" width="120" height="30" as="geometry"/>
                </mxCell>
                <mxCell id="15" value="Submit Registration" style="rounded=0;whiteSpace=wrap;html=1;" parent="1" vertex="1">
                    <mxGeometry x="345" y="960" width="120" height="20" as="geometry"/>
                </mxCell>
                <mxCell id="16" value="" style="whiteSpace=wrap;html=1;aspect=fixed;" parent="1" vertex="1">
                    <mxGeometry x="-160" y="-100" width="300" height="300" as="geometry"/>
                </mxCell>
                <mxCell id="17" value="" style="whiteSpace=wrap;html=1;aspect=fixed;" parent="1" vertex="1">
                    <mxGeometry x="610" y="-140" width="340" height="340" as="geometry"/>
                </mxCell>
                <mxCell id="19" value="" style="rounded=0;whiteSpace=wrap;html=1;" parent="1" vertex="1">
                    <mxGeometry x="-160" y="-100" width="300" height="50" as="geometry"/>
                </mxCell>
                <mxCell id="20" value="" style="rounded=0;whiteSpace=wrap;html=1;" parent="1" vertex="1">
                    <mxGeometry x="610" y="-140" width="340" height="50" as="geometry"/>
                </mxCell>
                <mxCell id="21" value="Patients" style="rounded=0;whiteSpace=wrap;html=1;" parent="1" vertex="1">
                    <mxGeometry x="-160" y="170" width="70" height="30" as="geometry"/>
                </mxCell>
                <mxCell id="22" value="Providers" style="rounded=0;whiteSpace=wrap;html=1;" parent="1" vertex="1">
                    <mxGeometry x="610" y="170" width="70" height="30" as="geometry"/>
                </mxCell>
                <mxCell id="42" style="edgeStyle=none;html=1;entryX=1;entryY=1;entryDx=0;entryDy=0;" parent="1" source="23" target="26" edge="1">
                    <mxGeometry relative="1" as="geometry"/>
                </mxCell>
                <mxCell id="23" value="My Providers" style="rounded=0;whiteSpace=wrap;html=1;" parent="1" vertex="1">
                    <mxGeometry x="-150" y="-90" width="80" height="30" as="geometry"/>
                </mxCell>
                <mxCell id="41" style="edgeStyle=none;html=1;exitX=0.5;exitY=0;exitDx=0;exitDy=0;" parent="1" source="24" target="27" edge="1">
                    <mxGeometry relative="1" as="geometry"/>
                </mxCell>
                <mxCell id="24" value="My Appointments" style="rounded=0;whiteSpace=wrap;html=1;" parent="1" vertex="1">
                    <mxGeometry x="-60" y="-90" width="80" height="30" as="geometry"/>
                </mxCell>
                <mxCell id="29" style="edgeStyle=none;html=1;exitX=0.75;exitY=0;exitDx=0;exitDy=0;entryX=0.327;entryY=1;entryDx=0;entryDy=0;entryPerimeter=0;" parent="1" source="25" target="28" edge="1">
                    <mxGeometry relative="1" as="geometry"/>
                </mxCell>
                <mxCell id="25" value="My Profile" style="rounded=0;whiteSpace=wrap;html=1;" parent="1" vertex="1">
                    <mxGeometry x="60" y="-90" width="60" height="30" as="geometry"/>
                </mxCell>
                <mxCell id="26" value="" style="whiteSpace=wrap;html=1;aspect=fixed;" parent="1" vertex="1">
                    <mxGeometry x="-510" y="-370" width="220" height="220" as="geometry"/>
                </mxCell>
                <mxCell id="27" value="" style="whiteSpace=wrap;html=1;aspect=fixed;" parent="1" vertex="1">
                    <mxGeometry x="-220" y="-370" width="220" height="220" as="geometry"/>
                </mxCell>
                <mxCell id="28" value="" style="whiteSpace=wrap;html=1;aspect=fixed;" parent="1" vertex="1">
                    <mxGeometry x="40" y="-370" width="220" height="220" as="geometry"/>
                </mxCell>
                <mxCell id="30" value="Current Information" style="whiteSpace=wrap;html=1;aspect=fixed;" parent="1" vertex="1">
                    <mxGeometry x="100" y="-310" width="120" height="120" as="geometry"/>
                </mxCell>
                <mxCell id="31" value="Profile Information" style="rounded=0;whiteSpace=wrap;html=1;" parent="1" vertex="1">
                    <mxGeometry x="110" y="-340" width="100" height="30" as="geometry"/>
                </mxCell>
                <mxCell id="33" value="Submit Changes" style="rounded=1;whiteSpace=wrap;html=1;" parent="1" vertex="1">
                    <mxGeometry x="110" y="-190" width="100" height="30" as="geometry"/>
                </mxCell>
                <mxCell id="34" value="Nav Bar" style="rounded=0;whiteSpace=wrap;html=1;" parent="1" vertex="1">
                    <mxGeometry x="40" y="-370" width="220" height="20" as="geometry"/>
                </mxCell>
                <mxCell id="35" value="NavBar" style="rounded=0;whiteSpace=wrap;html=1;" parent="1" vertex="1">
                    <mxGeometry x="-220" y="-370" width="220" height="20" as="geometry"/>
                </mxCell>
                <mxCell id="36" value="List of current Appointments/info of appointments/ability to delete appointments" style="rounded=0;whiteSpace=wrap;html=1;" parent="1" vertex="1">
                    <mxGeometry x="-190" y="-330" width="160" height="140" as="geometry"/>
                </mxCell>
                <mxCell id="77" style="edgeStyle=none;html=1;entryX=1;entryY=1;entryDx=0;entryDy=0;" parent="1" source="37" target="45" edge="1">
                    <mxGeometry relative="1" as="geometry"/>
                </mxCell>
                <mxCell id="37" value="create a new appointments" style="rounded=0;whiteSpace=wrap;html=1;" parent="1" vertex="1">
                    <mxGeometry x="-175" y="-180" width="130" height="30" as="geometry"/>
                </mxCell>
                <mxCell id="38" value="Nav Bar" style="rounded=0;whiteSpace=wrap;html=1;" parent="1" vertex="1">
                    <mxGeometry x="-500" y="-370" width="200" height="30" as="geometry"/>
                </mxCell>
                <mxCell id="39" value="List of Current Providers/infomation and remove buttons to delete patient/provider relationships" style="rounded=0;whiteSpace=wrap;html=1;" parent="1" vertex="1">
                    <mxGeometry x="-465" y="-330" width="130" height="130" as="geometry"/>
                </mxCell>
                <mxCell id="78" style="edgeStyle=none;html=1;exitX=0.5;exitY=0;exitDx=0;exitDy=0;entryX=1;entryY=1;entryDx=0;entryDy=0;" parent="1" source="40" target="51" edge="1">
                    <mxGeometry relative="1" as="geometry"/>
                </mxCell>
                <mxCell id="40" value="Find a new provider" style="rounded=0;whiteSpace=wrap;html=1;" parent="1" vertex="1">
                    <mxGeometry x="-465" y="-190" width="130" height="30" as="geometry"/>
                </mxCell>
                <mxCell id="43" value="Home screen showing upcoming appoitments&lt;br&gt;with providers name&lt;br&gt;" style="whiteSpace=wrap;html=1;aspect=fixed;" parent="1" vertex="1">
                    <mxGeometry x="-75" y="30" width="130" height="130" as="geometry"/>
                </mxCell>
                <mxCell id="44" value="Hello username" style="rounded=0;whiteSpace=wrap;html=1;" parent="1" vertex="1">
                    <mxGeometry x="-70" y="-40" width="120" height="60" as="geometry"/>
                </mxCell>
                <mxCell id="45" value="" style="whiteSpace=wrap;html=1;aspect=fixed;" parent="1" vertex="1">
                    <mxGeometry x="-220" y="-610" width="220" height="220" as="geometry"/>
                </mxCell>
                <mxCell id="46" value="list available appointments for patients assigned doctors/ with a reserve button" style="whiteSpace=wrap;html=1;aspect=fixed;" parent="1" vertex="1">
                    <mxGeometry x="-220" y="-560" width="110" height="110" as="geometry"/>
                </mxCell>
                <mxCell id="47" value="nabBar" style="rounded=0;whiteSpace=wrap;html=1;" parent="1" vertex="1">
                    <mxGeometry x="-220" y="-610" width="220" height="30" as="geometry"/>
                </mxCell>
                <mxCell id="48" value="Reserve Form&amp;nbsp; where patient will input appointment information" style="rounded=0;whiteSpace=wrap;html=1;" parent="1" vertex="1">
                    <mxGeometry x="-100" y="-560" width="90" height="110" as="geometry"/>
                </mxCell>
                <mxCell id="49" value="Cancel Button" style="rounded=0;whiteSpace=wrap;html=1;" parent="1" vertex="1">
                    <mxGeometry x="-210" y="-440" width="90" height="30" as="geometry"/>
                </mxCell>
                <mxCell id="50" value="Submit Button" style="rounded=0;whiteSpace=wrap;html=1;" parent="1" vertex="1">
                    <mxGeometry x="-105" y="-440" width="100" height="30" as="geometry"/>
                </mxCell>
                <mxCell id="51" value="" style="whiteSpace=wrap;html=1;aspect=fixed;" parent="1" vertex="1">
                    <mxGeometry x="-500" y="-615" width="195" height="195" as="geometry"/>
                </mxCell>
                <mxCell id="52" value="List of current providers where the patient can sign themselves up" style="rounded=0;whiteSpace=wrap;html=1;" parent="1" vertex="1">
                    <mxGeometry x="-477.5" y="-570" width="150" height="140" as="geometry"/>
                </mxCell>
                <mxCell id="53" value="Available Providers" style="rounded=0;whiteSpace=wrap;html=1;" parent="1" vertex="1">
                    <mxGeometry x="-462.5" y="-600" width="120" height="30" as="geometry"/>
                </mxCell>
                <mxCell id="54" value="Nav Bar" style="rounded=0;whiteSpace=wrap;html=1;" parent="1" vertex="1">
                    <mxGeometry x="-500" y="-615" width="200" height="15" as="geometry"/>
                </mxCell>
                <mxCell id="55" value="" style="whiteSpace=wrap;html=1;aspect=fixed;" parent="1" vertex="1">
                    <mxGeometry x="370" y="-580" width="310" height="310" as="geometry"/>
                </mxCell>
                <mxCell id="56" value="" style="whiteSpace=wrap;html=1;aspect=fixed;" parent="1" vertex="1">
                    <mxGeometry x="870" y="-650" width="310" height="310" as="geometry"/>
                </mxCell>
                <mxCell id="70" style="edgeStyle=none;html=1;" parent="1" source="57" target="55" edge="1">
                    <mxGeometry relative="1" as="geometry"/>
                </mxCell>
                <mxCell id="57" value="My Patients" style="rounded=1;whiteSpace=wrap;html=1;" parent="1" vertex="1">
                    <mxGeometry x="620" y="-130" width="95" height="27.5" as="geometry"/>
                </mxCell>
                <mxCell id="71" style="edgeStyle=none;html=1;entryX=0.03;entryY=1.011;entryDx=0;entryDy=0;entryPerimeter=0;" parent="1" source="58" target="56" edge="1">
                    <mxGeometry relative="1" as="geometry"/>
                </mxCell>
                <mxCell id="58" value="My Current Appointments" style="rounded=1;whiteSpace=wrap;html=1;" parent="1" vertex="1">
                    <mxGeometry x="727.5" y="-130" width="105" height="27.5" as="geometry"/>
                </mxCell>
                <mxCell id="76" style="edgeStyle=none;html=1;" parent="1" source="60" target="72" edge="1">
                    <mxGeometry relative="1" as="geometry"/>
                </mxCell>
                <mxCell id="60" value="My Profile" style="rounded=1;whiteSpace=wrap;html=1;arcSize=0;" parent="1" vertex="1">
                    <mxGeometry x="870" y="-130" width="72.5" height="30" as="geometry"/>
                </mxCell>
                <mxCell id="62" value="Home Page showing the Providers upcoming 3 scheduled appointments.&amp;nbsp;" style="whiteSpace=wrap;html=1;aspect=fixed;" parent="1" vertex="1">
                    <mxGeometry x="700" y="-40" width="160" height="160" as="geometry"/>
                </mxCell>
                <mxCell id="64" value="welcome name...." style="rounded=0;whiteSpace=wrap;html=1;" parent="1" vertex="1">
                    <mxGeometry x="715" y="-80" width="120" height="30" as="geometry"/>
                </mxCell>
                <mxCell id="65" value="Navbar" style="rounded=0;whiteSpace=wrap;html=1;" parent="1" vertex="1">
                    <mxGeometry x="370" y="-580" width="310" height="40" as="geometry"/>
                </mxCell>
                <mxCell id="66" value="NavBar" style="rounded=0;whiteSpace=wrap;html=1;" parent="1" vertex="1">
                    <mxGeometry x="870" y="-650" width="310" height="40" as="geometry"/>
                </mxCell>
                <mxCell id="67" value="Current List of All Patients/ refuse/delete patients button for each patient" style="whiteSpace=wrap;html=1;aspect=fixed;" parent="1" vertex="1">
                    <mxGeometry x="395" y="-530" width="250" height="250" as="geometry"/>
                </mxCell>
                <mxCell id="68" value="Full List of upcoming scheduled appointments&lt;br&gt;Button to cancel the appointments that will also remove the appointment availability.&amp;nbsp;" style="whiteSpace=wrap;html=1;aspect=fixed;" parent="1" vertex="1">
                    <mxGeometry x="890" y="-550" width="130" height="130" as="geometry"/>
                </mxCell>
                <mxCell id="69" value="List of upcoming appointments with no one scheduled/elete buttons" style="whiteSpace=wrap;html=1;aspect=fixed;" parent="1" vertex="1">
                    <mxGeometry x="1030" y="-550" width="130" height="130" as="geometry"/>
                </mxCell>
                <mxCell id="72" value="" style="whiteSpace=wrap;html=1;aspect=fixed;" parent="1" vertex="1">
                    <mxGeometry x="980" y="-210" width="370" height="370" as="geometry"/>
                </mxCell>
                <mxCell id="73" value="NavBar" style="rounded=0;whiteSpace=wrap;html=1;" parent="1" vertex="1">
                    <mxGeometry x="980" y="-210" width="370" height="40" as="geometry"/>
                </mxCell>
                <mxCell id="74" value="Profile Intormation" style="whiteSpace=wrap;html=1;aspect=fixed;" parent="1" vertex="1">
                    <mxGeometry x="1085" y="-130" width="160" height="160" as="geometry"/>
                </mxCell>
                <mxCell id="75" value="Save Changes" style="rounded=0;whiteSpace=wrap;html=1;" parent="1" vertex="1">
                    <mxGeometry x="1105" y="60" width="120" height="40" as="geometry"/>
                </mxCell>
                <mxCell id="82" style="edgeStyle=none;html=1;exitX=1;exitY=0.75;exitDx=0;exitDy=0;" edge="1" parent="1" source="79" target="80">
                    <mxGeometry relative="1" as="geometry"/>
                </mxCell>
                <mxCell id="79" value="Button To create Available appoitnments" style="rounded=0;whiteSpace=wrap;html=1;" vertex="1" parent="1">
                    <mxGeometry x="935" y="-400" width="170" height="30" as="geometry"/>
                </mxCell>
                <mxCell id="80" value="" style="whiteSpace=wrap;html=1;aspect=fixed;" vertex="1" parent="1">
                    <mxGeometry x="1230" y="-655" width="310" height="310" as="geometry"/>
                </mxCell>
                <mxCell id="81" value="NavBar" style="rounded=0;whiteSpace=wrap;html=1;" vertex="1" parent="1">
                    <mxGeometry x="1230" y="-650" width="310" height="40" as="geometry"/>
                </mxCell>
                <mxCell id="83" value="Form for New Appointments" style="whiteSpace=wrap;html=1;aspect=fixed;" vertex="1" parent="1">
                    <mxGeometry x="1350" y="-550" width="80" height="80" as="geometry"/>
                </mxCell>
                <mxCell id="84" value="Submit" style="rounded=0;whiteSpace=wrap;html=1;" vertex="1" parent="1">
                    <mxGeometry x="1330" y="-450" width="120" height="60" as="geometry"/>
                </mxCell>
            </root>
        </mxGraphModel>
    </diagram>
</mxfile>